<svg width="128" height="128" viewBox="0 0 128 128" fill="none" xmlns="http://www.w3.org/2000/svg">
<g clip-path="url(#clip0_71_2)">
<rect x="22.5" y="39.5" width="84" height="86" rx="7.5" fill="#E2E8F0" stroke="black" stroke-width="5"/>
<path d="M64.2272 7.16061C64.3931 7.05266 64.6069 7.05266 64.7728 7.16061L66.1367 5.06544L64.7728 7.16061L119.184 42.581C119.334 42.6783 119.376 42.765 119.395 42.8225C119.421 42.9001 119.429 43.014 119.391 43.1423C119.353 43.2706 119.284 43.3616 119.22 43.4126C119.173 43.4504 119.09 43.5 118.911 43.5H10.0885C9.91004 43.5 9.82736 43.4504 9.78005 43.4126C9.71605 43.3616 9.64727 43.2706 9.6092 43.1423C9.57112 43.014 9.57908 42.9001 9.60488 42.8225C9.62395 42.765 9.66616 42.6783 9.81575 42.581L64.2272 7.16062L62.8696 5.07506L64.2272 7.16061Z" stroke="black" stroke-width="5"/>
<path d="M64.2272 7.16061C64.3931 7.05266 64.6069 7.05266 64.7728 7.16061L66.1367 5.06544L64.7728 7.16061L119.184 42.581C119.334 42.6783 119.376 42.765 119.395 42.8225C119.421 42.9001 119.429 43.014 119.391 43.1423C119.353 43.2706 119.284 43.3616 119.22 43.4126C119.173 43.4504 119.09 43.5 118.911 43.5H10.0885C9.91004 43.5 9.82736 43.4504 9.78005 43.4126C9.71605 43.3616 9.64727 43.2706 9.6092 43.1423C9.57112 43.014 9.57908 42.9001 9.60488 42.8225C9.62395 42.765 9.66616 42.6783 9.81575 42.581L64.2272 7.16062L62.8696 5.07506L64.2272 7.16061Z" fill="#E2E8F0" stroke="black" stroke-width="5"/>
<rect x="52.5" y="88.5" width="23" height="41" rx="5.5" fill="white" stroke="black" stroke-width="5"/>
<rect x="22.5" y="47.5" width="23" height="25" rx="5.5" fill="white" stroke="black" stroke-width="5"/>
<rect x="83.5" y="47.5" width="23" height="25" rx="5.5" fill="white" stroke="black" stroke-width="5"/>
</g>
<defs>
<clipPath id="clip0_71_2">
<rect width="128" height="128" fill="white"/>
</clipPath>
</defs>
</svg>
